<svg width="32" height="32" viewBox="0 0 32 32" fill="none" xmlns="http://www.w3.org/2000/svg">
																<path d="M15.9999 3.44C10.1548 3.44 4.94004 7.64128 3.71732 13.3622C3.10644 16.2208 3.51796 19.2605 4.88084 21.847C6.19252 24.3363 8.34292 26.3482 10.9157 27.4883C13.5919 28.6746 16.6642 28.8813 19.477 28.0723C22.1906 27.2922 24.5967 25.5798 26.2348 23.2813C29.6597 18.4758 29.2018 11.7261 25.1724 7.41984C22.8111 4.89632 19.4565 3.44 15.9999 3.44ZM16.6783 9.98272L20.1855 13.4902C21.061 14.3658 19.7032 15.7235 18.8277 14.8477L17.0661 13.0858V21.2323C17.0661 21.8134 16.5807 22.2986 15.9996 22.2986C15.4184 22.2986 14.933 21.8134 14.933 21.2323V13.0451L13.1637 14.7725C12.2799 15.6362 10.9346 14.2659 11.8226 13.3987L15.3292 9.97472C15.7048 9.60736 16.3064 9.61088 16.6783 9.98272Z" fill="#32D16D"/>
															</svg>